{"asset":{"generator":"3D Builder","version":"2.0"},"scene":0,"scenes":[{"nodes":[0,1,2]}],"nodes":[{"mesh":0,"matrix":[0.35239338874816895,0,0,0,0,-4.4517584285586054E-8,-0.37344053387641907,0,0,0.99999982118606567,-1.1920928244535389E-7,0,0.0058721299283206463,0.0299999937415123,0.0075630261562764645,1]},{"mesh":1,"matrix":[0.99999994039535522,0,0,0,0,-1.1920928244535389E-7,-0.99999982118606567,0,0,0.99999982118606567,-1.1920928244535389E-7,0,-0.02009120024740696,0.010000001639127731,0.020252296701073647,1]},{"mesh":2,"matrix":[0.35239338874816895,0,0,0,0,-4.4517584285586054E-8,-0.37344053387641907,0,0,0.99999982118606567,-1.1920928244535389E-7,0,-0.020032132044434547,0.0299999937415123,0.0075630261562764645,1]}],"meshes":[{"primitives":[{"attributes":{"POSITION":0},"mode":4,"indices":1,"material":0}]},{"primitives":[{"attributes":{"POSITION":2},"mode":4,"indices":3,"material":0}]},{"primitives":[{"attributes":{"POSITION":4},"mode":4,"indices":5,"material":0}]}],"materials":[{"name":"Green","pbrMetallicRoughness":{"baseColorFactor":[0.015208514407277107,0.49693304300308228,0.072271861135959625,1],"metallicFactor":0,"roughnessFactor":1},"alphaMode":"OPAQUE"}],"accessors":[{"bufferView":0,"byteOffset":0,"count":2562,"componentType":5126,"type":"VEC3","min":[9.1169364168308675E-5,0.00025231935433112085,-0.010000000707805157],"max":[0.040091194212436676,0.040252320468425751,0.030000001192092896]},{"bufferView":1,"byteOffset":0,"count":15360,"componentType":5125,"type":"SCALAR"},{"bufferView":2,"byteOffset":0,"count":2562,"componentType":5126,"type":"VEC3","min":[9.1197973233647645E-5,0.00025230407482013106,-0.010000000707805157],"max":[0.040091205388307571,0.040252305567264557,0.030000001192092896]},{"bufferView":3,"byteOffset":0,"count":15360,"componentType":5125,"type":"SCALAR"},{"bufferView":4,"byteOffset":0,"count":2562,"componentType":5126,"type":"VEC3","min":[9.1169364168308675E-5,0.00025231935433112085,-0.010000000707805157],"max":[0.040091194212436676,0.040252320468425751,0.030000001192092896]},{"bufferView":5,"byteOffset":0,"count":15360,"componentType":5125,"type":"SCALAR"}],"bufferViews":[{"buffer":0,"byteOffset":0,"byteLength":30744,"byteStride":12,"target":34962},{"buffer":0,"byteOffset":30744,"byteLength":61440,"target":34963},{"buffer":0,"byteOffset":92184,"byteLength":30744,"byteStride":12,"target":34962},{"buffer":0,"byteOffset":122928,"byteLength":61440,"target":34963},{"buffer":0,"byteOffset":184368,"byteLength":30744,"byteStride":12,"target":34962},{"buffer":0,"byteOffset":215112,"byteLength":61440,"target":34963}],"buffers":[{"byteLength":276552,"uri":"test..bin"}]}