{"asset":{"generator":"3D Builder","version":"2.0"},"scene":0,"scenes":[{"nodes":[0,1,2]}],"nodes":[{"mesh":0,"matrix":[505.51904296875,0,0,0,0,-6.0262565966695547E-5,-505.51898193359375,0,0,505.51898193359375,-6.0262565966695547E-5,0,2.2227136469155084E-6,-4.7080121134968067E-7,1.2611441491117148E-7,1]},{"mesh":1,"matrix":[505.51904296875,0,0,0,0,-6.0262565966695547E-5,-505.51898193359375,0,0,505.51898193359375,-6.0262565966695547E-5,0,2.2227136469155084E-6,-4.7080121134968067E-7,1.2611441491117148E-7,1]},{"mesh":2,"matrix":[505.51904296875,0,0,0,0,-6.0262565966695547E-5,-505.51898193359375,0,0,505.51898193359375,-6.0262565966695547E-5,0,2.2227136469155084E-6,-4.7080121134968067E-7,1.2611441491117148E-7,1]}],"meshes":[{"primitives":[{"attributes":{"POSITION":0},"mode":4,"indices":1,"material":0}]},{"primitives":[{"attributes":{"POSITION":2},"mode":4,"indices":3,"material":0}]},{"primitives":[{"attributes":{"POSITION":4},"mode":4,"indices":5,"material":0}]}],"materials":[{"name":"Green","pbrMetallicRoughness":{"baseColorFactor":[0.015208514407277107,0.49693304300308228,0.072271861135959625,1],"metallicFactor":0,"roughnessFactor":1},"alphaMode":"OPAQUE"}],"accessors":[{"bufferView":0,"byteOffset":0,"count":2562,"componentType":5126,"type":"VEC3","min":[0.0059042572975158691,-0.0074688028544187546,0.019999992102384567],"max":[0.020000001415610313,0.0074688163585960865,0.059999980032444]},{"bufferView":1,"byteOffset":0,"count":15360,"componentType":5125,"type":"SCALAR"},{"bufferView":2,"byteOffset":0,"count":2562,"componentType":5126,"type":"VEC3","min":[-0.020000001415610313,-0.019999992102384567,9.3132257461547852E-10],"max":[0.020000001415610313,0.019999993965029716,0.039999987930059433]},{"bufferView":3,"byteOffset":0,"count":15360,"componentType":5125,"type":"SCALAR"},{"bufferView":4,"byteOffset":0,"count":2562,"componentType":5126,"type":"VEC3","min":[-0.020000005140900612,-0.0074688028544187546,0.019999992102384567],"max":[-0.005904260091483593,0.0074688163585960865,0.059999980032444]},{"bufferView":5,"byteOffset":0,"count":15360,"componentType":5125,"type":"SCALAR"}],"bufferViews":[{"buffer":0,"byteOffset":0,"byteLength":30744,"byteStride":12,"target":34962},{"buffer":0,"byteOffset":30744,"byteLength":61440,"target":34963},{"buffer":0,"byteOffset":92184,"byteLength":30744,"byteStride":12,"target":34962},{"buffer":0,"byteOffset":122928,"byteLength":61440,"target":34963},{"buffer":0,"byteOffset":184368,"byteLength":30744,"byteStride":12,"target":34962},{"buffer":0,"byteOffset":215112,"byteLength":61440,"target":34963}],"buffers":[{"byteLength":276552,"uri":"test.bin"}]}