{
    "asset" : {
        "generator" : "Khronos glTF Blender I/O v3.4.50",
        "version" : "2.0"
    },
    "scene" : 0,
    "scenes" : [
        {
            "name" : "Scene",
            "nodes" : [
                0
            ]
        }
    ],
    "nodes" : [
        {
            "mesh" : 0,
            "name" : "\u30c6\u30ad\u30b9\u30c8",
            "scale" : [
                0,
                0,
                0
            ],
            "translation" : [
                0,
                1.4499999284744263,
                0
            ]
        }
    ],
    "animations" : [
        {
            "channels" : [
                {
                    "sampler" : 0,
                    "target" : {
                        "node" : 0,
                        "path" : "scale"
                    }
                },
                {
                    "sampler" : 1,
                    "target" : {
                        "node" : 0,
                        "path" : "translation"
                    }
                }
            ],
            "name" : "\u30c6\u30ad\u30b9\u30c8Action",
            "samplers" : [
                {
                    "input" : 4,
                    "interpolation" : "LINEAR",
                    "output" : 5
                },
                {
                    "input" : 4,
                    "interpolation" : "STEP",
                    "output" : 6
                }
            ]
        }
    ],
    "materials" : [
        {
            "doubleSided" : true,
            "name" : "\u30de\u30c6\u30ea\u30a2\u30eb.003",
            "pbrMetallicRoughness" : {
                "baseColorTexture" : {
                    "index" : 0
                },
                "metallicFactor" : 0,
                "roughnessFactor" : 0.5
            }
        }
    ],
    "meshes" : [
        {
            "name" : "\u30c6\u30ad\u30b9\u30c8",
            "primitives" : [
                {
                    "attributes" : {
                        "POSITION" : 0,
                        "TEXCOORD_0" : 1,
                        "NORMAL" : 2
                    },
                    "indices" : 3,
                    "material" : 0
                }
            ]
        }
    ],
    "textures" : [
        {
            "sampler" : 0,
            "source" : 0
        }
    ],
    "images" : [
        {
            "mimeType" : "image/png",
            "name" : "text",
            "uri" : "textures/text.png"
        }
    ],
    "accessors" : [
        {
            "bufferView" : 0,
            "componentType" : 5126,
            "count" : 121990,
            "max" : [
                4.510030269622803,
                8.003080368041992,
                0.07000000029802322
            ],
            "min" : [
                -4.714699745178223,
                6.146988868713379,
                -0.07000014185905457
            ],
            "type" : "VEC3"
        },
        {
            "bufferView" : 1,
            "componentType" : 5126,
            "count" : 121990,
            "type" : "VEC2"
        },
        {
            "bufferView" : 2,
            "componentType" : 5126,
            "count" : 121990,
            "type" : "VEC3"
        },
        {
            "bufferView" : 3,
            "componentType" : 5125,
            "count" : 530232,
            "type" : "SCALAR"
        },
        {
            "bufferView" : 4,
            "componentType" : 5126,
            "count" : 300,
            "max" : [
                12.5
            ],
            "min" : [
                0.041666666666666664
            ],
            "type" : "SCALAR"
        },
        {
            "bufferView" : 5,
            "componentType" : 5126,
            "count" : 300,
            "type" : "VEC3"
        },
        {
            "bufferView" : 6,
            "componentType" : 5126,
            "count" : 300,
            "type" : "VEC3"
        }
    ],
    "bufferViews" : [
        {
            "buffer" : 0,
            "byteLength" : 1463880,
            "byteOffset" : 0,
            "target" : 34962
        },
        {
            "buffer" : 0,
            "byteLength" : 975920,
            "byteOffset" : 1463880,
            "target" : 34962
        },
        {
            "buffer" : 0,
            "byteLength" : 1463880,
            "byteOffset" : 2439800,
            "target" : 34962
        },
        {
            "buffer" : 0,
            "byteLength" : 2120928,
            "byteOffset" : 3903680,
            "target" : 34963
        },
        {
            "buffer" : 0,
            "byteLength" : 1200,
            "byteOffset" : 6024608
        },
        {
            "buffer" : 0,
            "byteLength" : 3600,
            "byteOffset" : 6025808
        },
        {
            "buffer" : 0,
            "byteLength" : 3600,
            "byteOffset" : 6029408
        }
    ],
    "samplers" : [
        {
            "magFilter" : 9729,
            "minFilter" : 9987
        }
    ],
    "buffers" : [
        {
            "byteLength" : 6033008,
            "uri" : "text.bin"
        }
    ]
}
