{
    "asset" : {
        "generator" : "Khronos glTF Blender I/O v3.4.50",
        "version" : "2.0"
    },
    "scene" : 0,
    "scenes" : [
        {
            "name" : "Scene",
            "nodes" : [
                0
            ]
        }
    ],
    "nodes" : [
        {
            "mesh" : 0,
            "name" : "\u30c6\u30ad\u30b9\u30c8",
            "scale" : [
                0,
                0,
                0
            ],
            "translation" : [
                0,
                6.071120262145996,
                0
            ]
        }
    ],
    "animations" : [
        {
            "channels" : [
                {
                    "sampler" : 0,
                    "target" : {
                        "node" : 0,
                        "path" : "scale"
                    }
                }
            ],
            "name" : "\u30c6\u30ad\u30b9\u30c8Action",
            "samplers" : [
                {
                    "input" : 4,
                    "interpolation" : "LINEAR",
                    "output" : 5
                }
            ]
        }
    ],
    "materials" : [
        {
            "doubleSided" : true,
            "name" : "\u30de\u30c6\u30ea\u30a2\u30eb.003",
            "pbrMetallicRoughness" : {
                "baseColorTexture" : {
                    "index" : 0
                },
                "metallicFactor" : 0,
                "roughnessFactor" : 0.5
            }
        }
    ],
    "meshes" : [
        {
            "name" : "\u30c6\u30ad\u30b9\u30c8",
            "primitives" : [
                {
                    "attributes" : {
                        "POSITION" : 0,
                        "TEXCOORD_0" : 1,
                        "NORMAL" : 2
                    },
                    "indices" : 3,
                    "material" : 0
                }
            ]
        }
    ],
    "textures" : [
        {
            "sampler" : 0,
            "source" : 0
        }
    ],
    "images" : [
        {
            "mimeType" : "image/png",
            "name" : "tora",
            "uri" : "textures/tora.png"
        }
    ],
    "accessors" : [
        {
            "bufferView" : 0,
            "componentType" : 5126,
            "count" : 117877,
            "max" : [
                2.2550151348114014,
                0.03500000014901161,
                -0.03793434798717499
            ],
            "min" : [
                -2.3573498725891113,
                -0.03500000014901161,
                -0.9659799337387085
            ],
            "type" : "VEC3"
        },
        {
            "bufferView" : 1,
            "componentType" : 5126,
            "count" : 117877,
            "type" : "VEC2"
        },
        {
            "bufferView" : 2,
            "componentType" : 5126,
            "count" : 117877,
            "type" : "VEC3"
        },
        {
            "bufferView" : 3,
            "componentType" : 5125,
            "count" : 530232,
            "type" : "SCALAR"
        },
        {
            "bufferView" : 4,
            "componentType" : 5126,
            "count" : 200,
            "max" : [
                8.333333333333334
            ],
            "min" : [
                0.041666666666666664
            ],
            "type" : "SCALAR"
        },
        {
            "bufferView" : 5,
            "componentType" : 5126,
            "count" : 200,
            "type" : "VEC3"
        }
    ],
    "bufferViews" : [
        {
            "buffer" : 0,
            "byteLength" : 1414524,
            "byteOffset" : 0,
            "target" : 34962
        },
        {
            "buffer" : 0,
            "byteLength" : 943016,
            "byteOffset" : 1414524,
            "target" : 34962
        },
        {
            "buffer" : 0,
            "byteLength" : 1414524,
            "byteOffset" : 2357540,
            "target" : 34962
        },
        {
            "buffer" : 0,
            "byteLength" : 2120928,
            "byteOffset" : 3772064,
            "target" : 34963
        },
        {
            "buffer" : 0,
            "byteLength" : 800,
            "byteOffset" : 5892992
        },
        {
            "buffer" : 0,
            "byteLength" : 2400,
            "byteOffset" : 5893792
        }
    ],
    "samplers" : [
        {
            "magFilter" : 9729,
            "minFilter" : 9987
        }
    ],
    "buffers" : [
        {
            "byteLength" : 5896192,
            "uri" : "text.bin"
        }
    ]
}
