{
    "asset" : {
        "generator" : "Khronos glTF Blender I/O v3.4.50",
        "version" : "2.0"
    },
    "scene" : 0,
    "scenes" : [
        {
            "name" : "Scene",
            "nodes" : [
                0
            ]
        }
    ],
    "nodes" : [
        {
            "mesh" : 0,
            "name" : "\u3046\u3055\u3061\u3083\u3093",
            "scale" : [
                2.0073366165161133,
                2.0073366165161133,
                2.0073366165161133
            ],
            "translation" : [
                0,
                0,
                -22.016000747680664
            ]
        }
    ],
    "animations" : [
        {
            "channels" : [
                {
                    "sampler" : 0,
                    "target" : {
                        "node" : 0,
                        "path" : "translation"
                    }
                },
                {
                    "sampler" : 1,
                    "target" : {
                        "node" : 0,
                        "path" : "rotation"
                    }
                }
            ],
            "name" : "\u3046\u3055\u3061\u3083\u3093Action.001",
            "samplers" : [
                {
                    "input" : 5,
                    "interpolation" : "LINEAR",
                    "output" : 6
                },
                {
                    "input" : 5,
                    "interpolation" : "LINEAR",
                    "output" : 7
                }
            ]
        }
    ],
    "materials" : [
        {
            "doubleSided" : true,
            "name" : "\u30de\u30c6\u30ea\u30a2\u30eb",
            "pbrMetallicRoughness" : {
                "baseColorTexture" : {
                    "index" : 0
                },
                "metallicFactor" : 0,
                "roughnessFactor" : 0.5
            }
        }
    ],
    "meshes" : [
        {
            "name" : "\u30e1\u30c3\u30b7\u30e5",
            "primitives" : [
                {
                    "attributes" : {
                        "COLOR_0" : 0,
                        "POSITION" : 1,
                        "TEXCOORD_0" : 2,
                        "NORMAL" : 3
                    },
                    "indices" : 4,
                    "material" : 0
                }
            ]
        }
    ],
    "textures" : [
        {
            "sampler" : 0,
            "source" : 0
        }
    ],
    "images" : [
        {
            "mimeType" : "image/png",
            "name" : "white",
            "uri" : "textures/white.png"
        }
    ],
    "accessors" : [
        {
            "bufferView" : 0,
            "componentType" : 5123,
            "count" : 71393,
            "normalized" : true,
            "type" : "VEC4"
        },
        {
            "bufferView" : 1,
            "componentType" : 5126,
            "count" : 71393,
            "max" : [
                0.5858787298202515,
                2.3410165309906006,
                1.0910145044326782
            ],
            "min" : [
                -0.5858787298202515,
                0.00580263789743185,
                -1.239538311958313
            ],
            "type" : "VEC3"
        },
        {
            "bufferView" : 2,
            "componentType" : 5126,
            "count" : 71393,
            "type" : "VEC2"
        },
        {
            "bufferView" : 3,
            "componentType" : 5126,
            "count" : 71393,
            "type" : "VEC3"
        },
        {
            "bufferView" : 4,
            "componentType" : 5125,
            "count" : 107100,
            "type" : "SCALAR"
        },
        {
            "bufferView" : 5,
            "componentType" : 5126,
            "count" : 200,
            "max" : [
                8.333333333333334
            ],
            "min" : [
                0.041666666666666664
            ],
            "type" : "SCALAR"
        },
        {
            "bufferView" : 6,
            "componentType" : 5126,
            "count" : 200,
            "type" : "VEC3"
        },
        {
            "bufferView" : 7,
            "componentType" : 5126,
            "count" : 200,
            "type" : "VEC4"
        }
    ],
    "bufferViews" : [
        {
            "buffer" : 0,
            "byteLength" : 571144,
            "byteOffset" : 0,
            "target" : 34962
        },
        {
            "buffer" : 0,
            "byteLength" : 856716,
            "byteOffset" : 571144,
            "target" : 34962
        },
        {
            "buffer" : 0,
            "byteLength" : 571144,
            "byteOffset" : 1427860,
            "target" : 34962
        },
        {
            "buffer" : 0,
            "byteLength" : 856716,
            "byteOffset" : 1999004,
            "target" : 34962
        },
        {
            "buffer" : 0,
            "byteLength" : 428400,
            "byteOffset" : 2855720,
            "target" : 34963
        },
        {
            "buffer" : 0,
            "byteLength" : 800,
            "byteOffset" : 3284120
        },
        {
            "buffer" : 0,
            "byteLength" : 2400,
            "byteOffset" : 3284920
        },
        {
            "buffer" : 0,
            "byteLength" : 3200,
            "byteOffset" : 3287320
        }
    ],
    "samplers" : [
        {
            "magFilter" : 9729,
            "minFilter" : 9987
        }
    ],
    "buffers" : [
        {
            "byteLength" : 3290520,
            "uri" : "usagi.bin"
        }
    ]
}
