{
    "asset" : {
        "generator" : "Khronos glTF Blender I/O v3.4.50",
        "version" : "2.0"
    },
    "scene" : 0,
    "scenes" : [
        {
            "name" : "Scene",
            "nodes" : [
                0
            ]
        }
    ],
    "nodes" : [
        {
            "mesh" : 0,
            "name" : "\u3046\u3055\u3061\u3083\u3093",
            "scale" : [
                2.0073366165161133,
                2.0073366165161133,
                2.0073366165161133
            ],
            "translation" : [
                0,
                2.402078866958618,
                -22.016000747680664
            ]
        }
    ],
    "animations" : [
        {
            "channels" : [
                {
                    "sampler" : 0,
                    "target" : {
                        "node" : 0,
                        "path" : "translation"
                    }
                },
                {
                    "sampler" : 1,
                    "target" : {
                        "node" : 0,
                        "path" : "rotation"
                    }
                }
            ],
            "name" : "\u3046\u3055\u3061\u3083\u3093Action.001",
            "samplers" : [
                {
                    "input" : 10,
                    "interpolation" : "LINEAR",
                    "output" : 11
                },
                {
                    "input" : 10,
                    "interpolation" : "LINEAR",
                    "output" : 12
                }
            ]
        }
    ],
    "materials" : [
        {
            "doubleSided" : true,
            "name" : "\u30de\u30c6\u30ea\u30a2\u30eb.001",
            "pbrMetallicRoughness" : {
                "baseColorTexture" : {
                    "index" : 0
                },
                "metallicFactor" : 0,
                "roughnessFactor" : 0.5
            }
        },
        {
            "doubleSided" : true,
            "name" : "\u30de\u30c6\u30ea\u30a2\u30eb",
            "pbrMetallicRoughness" : {
                "baseColorTexture" : {
                    "index" : 1
                },
                "metallicFactor" : 0,
                "roughnessFactor" : 0.5
            }
        }
    ],
    "meshes" : [
        {
            "name" : "\u30e1\u30c3\u30b7\u30e5",
            "primitives" : [
                {
                    "attributes" : {
                        "COLOR_0" : 0,
                        "POSITION" : 1,
                        "TEXCOORD_0" : 2,
                        "NORMAL" : 3
                    },
                    "indices" : 4,
                    "material" : 0
                },
                {
                    "attributes" : {
                        "COLOR_0" : 5,
                        "POSITION" : 6,
                        "TEXCOORD_0" : 7,
                        "NORMAL" : 8
                    },
                    "indices" : 9,
                    "material" : 1
                }
            ]
        }
    ],
    "textures" : [
        {
            "sampler" : 0,
            "source" : 0
        },
        {
            "sampler" : 0,
            "source" : 1
        }
    ],
    "images" : [
        {
            "mimeType" : "image/png",
            "name" : "kao",
            "uri" : "textures/kao.png"
        },
        {
            "mimeType" : "image/png",
            "name" : "white",
            "uri" : "textures/white.png"
        }
    ],
    "accessors" : [
        {
            "bufferView" : 0,
            "componentType" : 5123,
            "count" : 15840,
            "normalized" : true,
            "type" : "VEC4"
        },
        {
            "bufferView" : 1,
            "componentType" : 5126,
            "count" : 15840,
            "max" : [
                0.4935503900051117,
                0.7243678569793701,
                1.0910146236419678
            ],
            "min" : [
                -0.4935503900051117,
                -0.2544161081314087,
                -1.2395381927490234
            ],
            "type" : "VEC3"
        },
        {
            "bufferView" : 2,
            "componentType" : 5126,
            "count" : 15840,
            "type" : "VEC2"
        },
        {
            "bufferView" : 3,
            "componentType" : 5126,
            "count" : 15840,
            "type" : "VEC3"
        },
        {
            "bufferView" : 4,
            "componentType" : 5123,
            "count" : 23772,
            "type" : "SCALAR"
        },
        {
            "bufferView" : 5,
            "componentType" : 5123,
            "count" : 55552,
            "normalized" : true,
            "type" : "VEC4"
        },
        {
            "bufferView" : 6,
            "componentType" : 5126,
            "count" : 55552,
            "max" : [
                0.5858787298202515,
                1.3435245752334595,
                0.7869610786437988
            ],
            "min" : [
                -0.5858787298202515,
                -0.9916892051696777,
                -1.1464698314666748
            ],
            "type" : "VEC3"
        },
        {
            "bufferView" : 7,
            "componentType" : 5126,
            "count" : 55552,
            "type" : "VEC2"
        },
        {
            "bufferView" : 8,
            "componentType" : 5126,
            "count" : 55552,
            "type" : "VEC3"
        },
        {
            "bufferView" : 9,
            "componentType" : 5123,
            "count" : 83328,
            "type" : "SCALAR"
        },
        {
            "bufferView" : 10,
            "componentType" : 5126,
            "count" : 80,
            "max" : [
                3.3333333333333335
            ],
            "min" : [
                0.041666666666666664
            ],
            "type" : "SCALAR"
        },
        {
            "bufferView" : 11,
            "componentType" : 5126,
            "count" : 80,
            "type" : "VEC3"
        },
        {
            "bufferView" : 12,
            "componentType" : 5126,
            "count" : 80,
            "type" : "VEC4"
        }
    ],
    "bufferViews" : [
        {
            "buffer" : 0,
            "byteLength" : 126720,
            "byteOffset" : 0,
            "target" : 34962
        },
        {
            "buffer" : 0,
            "byteLength" : 190080,
            "byteOffset" : 126720,
            "target" : 34962
        },
        {
            "buffer" : 0,
            "byteLength" : 126720,
            "byteOffset" : 316800,
            "target" : 34962
        },
        {
            "buffer" : 0,
            "byteLength" : 190080,
            "byteOffset" : 443520,
            "target" : 34962
        },
        {
            "buffer" : 0,
            "byteLength" : 47544,
            "byteOffset" : 633600,
            "target" : 34963
        },
        {
            "buffer" : 0,
            "byteLength" : 444416,
            "byteOffset" : 681144,
            "target" : 34962
        },
        {
            "buffer" : 0,
            "byteLength" : 666624,
            "byteOffset" : 1125560,
            "target" : 34962
        },
        {
            "buffer" : 0,
            "byteLength" : 444416,
            "byteOffset" : 1792184,
            "target" : 34962
        },
        {
            "buffer" : 0,
            "byteLength" : 666624,
            "byteOffset" : 2236600,
            "target" : 34962
        },
        {
            "buffer" : 0,
            "byteLength" : 166656,
            "byteOffset" : 2903224,
            "target" : 34963
        },
        {
            "buffer" : 0,
            "byteLength" : 320,
            "byteOffset" : 3069880
        },
        {
            "buffer" : 0,
            "byteLength" : 960,
            "byteOffset" : 3070200
        },
        {
            "buffer" : 0,
            "byteLength" : 1280,
            "byteOffset" : 3071160
        }
    ],
    "samplers" : [
        {
            "magFilter" : 9729,
            "minFilter" : 9987
        }
    ],
    "buffers" : [
        {
            "byteLength" : 3072440,
            "uri" : "usagi.bin"
        }
    ]
}
